<svg width="268" height="242" viewBox="0 0 268 242" fill="none" xmlns="http://www.w3.org/2000/svg">
<g filter="url(#filter0_d)">
<mask id="path-1-inside-1" fill="white">
<path fill-rule="evenodd" clip-rule="evenodd" d="M33.1806 167.049C29.1994 167.049 24.4745 167.89 19.3121 173.853V157.165C19.3121 152.949 15.8778 149.52 11.6561 149.52C7.43429 149.52 4 152.949 4 157.165V211.588C4 215.804 7.43429 219.233 11.6561 219.233C15.8778 219.233 19.3121 215.804 19.3121 211.588V190.465C19.3121 184.393 22.1996 181.04 27.4604 181.04C32.6118 181.04 35.3242 184.295 35.3242 190.465V211.588C35.3242 215.804 38.7585 219.233 42.9803 219.233C47.2021 219.233 50.6364 215.804 50.6364 211.588V186.031C50.6254 174.148 44.1069 167.049 33.1806 167.049ZM77.1482 167.42C70.914 167.42 65.9704 168.229 61.1252 170.042C58.6096 170.981 56.9253 173.406 56.9253 176.071C56.9253 179.631 59.758 182.416 63.3783 182.416C64.122 182.416 64.7454 182.307 65.5985 182.023C68.5406 181.105 71.6468 180.669 75.1139 180.669C83.3387 180.669 85.0887 185.201 85.1105 189.035C82.2559 188.106 78.6576 187.254 73.6374 187.254C60.5564 187.254 53.0535 193.229 53.0535 203.659V203.845C53.0535 213.27 60.1408 219.605 70.6843 219.605C76.6232 219.605 81.3809 217.803 85.1761 214.111C85.8214 216.809 88.4136 219.244 92.3947 219.244C96.5837 219.244 99.8649 216.012 99.8649 211.883V189.351C99.8649 182.263 98.0055 176.802 94.3197 173.133C90.5135 169.343 84.7387 167.42 77.1482 167.42ZM74.928 208.65C70.5859 208.65 67.8953 206.597 67.8953 203.288V203.102C67.8953 199.159 71.1984 196.909 76.9623 196.909C79.9153 196.909 82.8575 197.488 85.2965 198.537V200.623C85.2965 205.341 81.0309 208.65 74.928 208.65ZM120.383 173.984C124.342 169.321 129.22 167.049 135.258 167.049C146.775 167.049 158.423 176.038 158.423 193.229V193.414C158.423 201.333 155.984 208.039 151.379 212.822C147.168 217.202 141.448 219.605 135.258 219.605C129.297 219.605 124.561 217.573 120.46 213.248V226.355C120.46 230.57 117.025 234 112.804 234C108.582 234 105.148 230.57 105.148 226.355V175.066C105.148 170.85 108.582 167.42 112.804 167.42C116.664 167.42 119.858 170.282 120.383 173.984ZM143.122 193.229C143.122 185.813 138.189 180.21 131.648 180.21C125.064 180.21 120.274 185.682 120.274 193.229V193.414C120.274 200.961 125.053 206.433 131.648 206.433C138.298 206.433 143.122 200.961 143.122 193.414V193.229ZM192.066 167.049C186.028 167.049 181.15 169.321 177.191 173.984C176.666 170.282 173.472 167.42 169.612 167.42C165.39 167.42 161.956 170.85 161.956 175.066V226.355C161.956 230.57 165.39 234 169.612 234C173.833 234 177.268 230.57 177.268 226.355V213.248C181.369 217.573 186.105 219.605 192.066 219.605C198.256 219.605 203.976 217.202 208.187 212.822C212.792 208.039 215.231 201.333 215.231 193.414V193.229C215.231 176.038 203.583 167.049 192.066 167.049ZM188.456 180.21C194.997 180.21 199.93 185.813 199.93 193.229V193.414C199.93 200.961 195.106 206.433 188.456 206.433C181.861 206.433 177.082 200.961 177.082 193.414V193.229C177.082 185.682 181.872 180.21 188.456 180.21ZM249.388 173.187C250.81 169.408 253.347 167.42 256.727 167.42C260.806 167.42 264.011 170.533 264 174.487C264 175.634 263.628 177.294 263.3 178.058L246.03 219.474C241.688 229.97 237.16 233.694 228.727 233.694C225.752 233.694 223.467 233.301 220.842 232.362C219.037 231.706 215.996 230.002 215.996 225.961C215.996 221.986 219.135 219.616 222.165 219.616C223.368 219.616 224.09 219.823 224.67 220.02C225.862 220.391 226.518 220.544 227.426 220.544C229.723 220.544 230.685 220.173 231.844 217.956L232.194 217.126L215.395 178.255C215.012 177.294 214.607 175.808 214.607 174.771C214.607 170.577 217.856 167.409 222.165 167.409C225.72 167.409 228.126 169.266 229.504 173.089L239.621 200.251L249.388 173.187Z"/>
</mask>
<path fill-rule="evenodd" clip-rule="evenodd" d="M33.1806 167.049C29.1994 167.049 24.4745 167.89 19.3121 173.853V157.165C19.3121 152.949 15.8778 149.52 11.6561 149.52C7.43429 149.52 4 152.949 4 157.165V211.588C4 215.804 7.43429 219.233 11.6561 219.233C15.8778 219.233 19.3121 215.804 19.3121 211.588V190.465C19.3121 184.393 22.1996 181.04 27.4604 181.04C32.6118 181.04 35.3242 184.295 35.3242 190.465V211.588C35.3242 215.804 38.7585 219.233 42.9803 219.233C47.2021 219.233 50.6364 215.804 50.6364 211.588V186.031C50.6254 174.148 44.1069 167.049 33.1806 167.049ZM77.1482 167.42C70.914 167.42 65.9704 168.229 61.1252 170.042C58.6096 170.981 56.9253 173.406 56.9253 176.071C56.9253 179.631 59.758 182.416 63.3783 182.416C64.122 182.416 64.7454 182.307 65.5985 182.023C68.5406 181.105 71.6468 180.669 75.1139 180.669C83.3387 180.669 85.0887 185.201 85.1105 189.035C82.2559 188.106 78.6576 187.254 73.6374 187.254C60.5564 187.254 53.0535 193.229 53.0535 203.659V203.845C53.0535 213.27 60.1408 219.605 70.6843 219.605C76.6232 219.605 81.3809 217.803 85.1761 214.111C85.8214 216.809 88.4136 219.244 92.3947 219.244C96.5837 219.244 99.8649 216.012 99.8649 211.883V189.351C99.8649 182.263 98.0055 176.802 94.3197 173.133C90.5135 169.343 84.7387 167.42 77.1482 167.42ZM74.928 208.65C70.5859 208.65 67.8953 206.597 67.8953 203.288V203.102C67.8953 199.159 71.1984 196.909 76.9623 196.909C79.9153 196.909 82.8575 197.488 85.2965 198.537V200.623C85.2965 205.341 81.0309 208.65 74.928 208.65ZM120.383 173.984C124.342 169.321 129.22 167.049 135.258 167.049C146.775 167.049 158.423 176.038 158.423 193.229V193.414C158.423 201.333 155.984 208.039 151.379 212.822C147.168 217.202 141.448 219.605 135.258 219.605C129.297 219.605 124.561 217.573 120.46 213.248V226.355C120.46 230.57 117.025 234 112.804 234C108.582 234 105.148 230.57 105.148 226.355V175.066C105.148 170.85 108.582 167.42 112.804 167.42C116.664 167.42 119.858 170.282 120.383 173.984ZM143.122 193.229C143.122 185.813 138.189 180.21 131.648 180.21C125.064 180.21 120.274 185.682 120.274 193.229V193.414C120.274 200.961 125.053 206.433 131.648 206.433C138.298 206.433 143.122 200.961 143.122 193.414V193.229ZM192.066 167.049C186.028 167.049 181.15 169.321 177.191 173.984C176.666 170.282 173.472 167.42 169.612 167.42C165.39 167.42 161.956 170.85 161.956 175.066V226.355C161.956 230.57 165.39 234 169.612 234C173.833 234 177.268 230.57 177.268 226.355V213.248C181.369 217.573 186.105 219.605 192.066 219.605C198.256 219.605 203.976 217.202 208.187 212.822C212.792 208.039 215.231 201.333 215.231 193.414V193.229C215.231 176.038 203.583 167.049 192.066 167.049ZM188.456 180.21C194.997 180.21 199.93 185.813 199.93 193.229V193.414C199.93 200.961 195.106 206.433 188.456 206.433C181.861 206.433 177.082 200.961 177.082 193.414V193.229C177.082 185.682 181.872 180.21 188.456 180.21ZM249.388 173.187C250.81 169.408 253.347 167.42 256.727 167.42C260.806 167.42 264.011 170.533 264 174.487C264 175.634 263.628 177.294 263.3 178.058L246.03 219.474C241.688 229.97 237.16 233.694 228.727 233.694C225.752 233.694 223.467 233.301 220.842 232.362C219.037 231.706 215.996 230.002 215.996 225.961C215.996 221.986 219.135 219.616 222.165 219.616C223.368 219.616 224.09 219.823 224.67 220.02C225.862 220.391 226.518 220.544 227.426 220.544C229.723 220.544 230.685 220.173 231.844 217.956L232.194 217.126L215.395 178.255C215.012 177.294 214.607 175.808 214.607 174.771C214.607 170.577 217.856 167.409 222.165 167.409C225.72 167.409 228.126 169.266 229.504 173.089L239.621 200.251L249.388 173.187Z" fill="white"/>
<path d="M19.3121 173.853H18.3121V176.536L20.0682 174.508L19.3121 173.853ZM50.6364 186.031H51.6364L51.6364 186.03L50.6364 186.031ZM61.1252 170.042L61.475 170.978L61.4756 170.978L61.1252 170.042ZM65.5985 182.023L65.3008 181.068L65.2917 181.071L65.2827 181.074L65.5985 182.023ZM85.1105 189.035L84.8013 189.986L86.1184 190.414L86.1105 189.029L85.1105 189.035ZM85.1761 214.111L86.1487 213.879L85.7396 212.168L84.4789 213.394L85.1761 214.111ZM94.3197 173.133L93.6141 173.841L93.6141 173.841L94.3197 173.133ZM85.2965 198.537H86.2965V197.878L85.6914 197.618L85.2965 198.537ZM120.383 173.984L119.393 174.125L119.705 176.328L121.145 174.632L120.383 173.984ZM151.379 212.822L150.659 212.129L150.658 212.129L151.379 212.822ZM120.46 213.248L121.185 212.56L119.46 210.741V213.248H120.46ZM177.191 173.984L176.201 174.125L176.513 176.328L177.953 174.632L177.191 173.984ZM177.268 213.248L177.993 212.56L176.268 210.741V213.248H177.268ZM208.187 212.822L207.467 212.129L207.466 212.129L208.187 212.822ZM249.388 173.187L248.452 172.835L248.447 172.848L249.388 173.187ZM264 174.487L263 174.484V174.487H264ZM263.3 178.058L262.381 177.664L262.377 177.673L263.3 178.058ZM246.03 219.474L245.107 219.089L245.106 219.091L246.03 219.474ZM220.842 232.362L220.5 233.301L220.505 233.303L220.842 232.362ZM224.67 220.02L224.348 220.967L224.36 220.971L224.372 220.975L224.67 220.02ZM231.844 217.956L232.731 218.419L232.75 218.382L232.766 218.344L231.844 217.956ZM232.194 217.126L233.116 217.514L233.282 217.121L233.112 216.729L232.194 217.126ZM215.395 178.255L214.466 178.625L214.471 178.638L214.477 178.652L215.395 178.255ZM229.504 173.089L228.563 173.428L228.567 173.438L229.504 173.089ZM239.621 200.251L238.684 200.6L239.636 203.156L240.561 200.591L239.621 200.251ZM20.0682 174.508C22.5625 171.627 24.9106 170.028 27.0696 169.14C29.2304 168.251 31.2645 168.049 33.1806 168.049V166.049C31.1155 166.049 28.7966 166.267 26.309 167.29C23.8197 168.314 21.2241 170.117 18.5561 173.199L20.0682 174.508ZM18.3121 157.165V173.853H20.3121V157.165H18.3121ZM11.6561 150.52C15.3269 150.52 18.3121 153.503 18.3121 157.165H20.3121C20.3121 152.395 16.4288 148.52 11.6561 148.52V150.52ZM5 157.165C5 153.503 7.98525 150.52 11.6561 150.52V148.52C6.88334 148.52 3 152.395 3 157.165H5ZM5 211.588V157.165H3V211.588H5ZM11.6561 218.233C7.98525 218.233 5 215.25 5 211.588H3C3 216.358 6.88334 220.233 11.6561 220.233V218.233ZM18.3121 211.588C18.3121 215.25 15.3269 218.233 11.6561 218.233V220.233C16.4288 220.233 20.3121 216.358 20.3121 211.588H18.3121ZM18.3121 190.465V211.588H20.3121V190.465H18.3121ZM27.4604 180.04C24.6076 180.04 22.2665 180.958 20.6566 182.822C19.0669 184.663 18.3121 187.286 18.3121 190.465H20.3121C20.3121 187.572 21.0011 185.483 22.1703 184.129C23.3193 182.799 25.0523 182.04 27.4604 182.04V180.04ZM36.3242 190.465C36.3242 187.254 35.6211 184.631 34.092 182.798C32.5367 180.933 30.2577 180.04 27.4604 180.04V182.04C29.8145 182.04 31.4674 182.774 32.5562 184.079C33.6712 185.416 34.3242 187.506 34.3242 190.465H36.3242ZM36.3242 211.588V190.465H34.3242V211.588H36.3242ZM42.9803 218.233C39.3095 218.233 36.3242 215.25 36.3242 211.588H34.3242C34.3242 216.358 38.2076 220.233 42.9803 220.233V218.233ZM49.6364 211.588C49.6364 215.25 46.6511 218.233 42.9803 218.233V220.233C47.753 220.233 51.6364 216.358 51.6364 211.588H49.6364ZM49.6364 186.031V211.588H51.6364V186.031H49.6364ZM33.1806 168.049C38.4191 168.049 42.4925 169.744 45.2655 172.761C48.0488 175.789 49.6311 180.267 49.6364 186.032L51.6364 186.03C51.6307 179.912 49.9483 174.9 46.7379 171.407C43.5174 167.904 38.8683 166.049 33.1806 166.049V168.049ZM61.4756 170.978C66.1883 169.215 71.0097 168.42 77.1482 168.42V166.42C70.8183 166.42 65.7524 167.242 60.7747 169.105L61.4756 170.978ZM57.9253 176.071C57.9253 173.825 59.3483 171.773 61.475 170.978L60.7754 169.105C57.8709 170.189 55.9253 172.986 55.9253 176.071H57.9253ZM63.3783 181.416C60.2944 181.416 57.9253 179.063 57.9253 176.071H55.9253C55.9253 180.199 59.2217 183.416 63.3783 183.416V181.416ZM65.2827 181.074C64.5124 181.33 63.9963 181.416 63.3783 181.416V183.416C64.2477 183.416 64.9784 183.283 65.9143 182.972L65.2827 181.074ZM75.1139 179.669C71.56 179.669 68.352 180.117 65.3008 181.068L65.8962 182.978C68.7293 182.094 71.7336 181.669 75.1139 181.669V179.669ZM86.1105 189.029C86.0988 186.982 85.6271 184.607 83.9277 182.741C82.2114 180.856 79.4072 179.669 75.1139 179.669V181.669C79.0454 181.669 81.2286 182.747 82.449 184.087C83.6862 185.446 84.1004 187.254 84.1106 189.04L86.1105 189.029ZM73.6374 188.254C78.5324 188.254 82.0254 189.083 84.8013 189.986L85.4198 188.084C82.4864 187.13 78.7827 186.254 73.6374 186.254V188.254ZM54.0535 203.659C54.0535 198.706 55.8219 194.91 59.0632 192.327C62.3371 189.719 67.2324 188.254 73.6374 188.254V186.254C66.9614 186.254 61.5648 187.777 57.8169 190.763C54.0366 193.775 52.0535 198.182 52.0535 203.659H54.0535ZM54.0535 203.845V203.659H52.0535V203.845H54.0535ZM70.6843 218.605C65.6103 218.605 61.455 217.082 58.5815 214.514C55.7178 211.954 54.0535 208.292 54.0535 203.845H52.0535C52.0535 208.823 53.9328 213.041 57.2487 216.005C60.5547 218.96 65.2148 220.605 70.6843 220.605V218.605ZM84.4789 213.394C80.8939 216.881 76.3976 218.605 70.6843 218.605V220.605C76.8489 220.605 81.868 218.724 85.8734 214.828L84.4789 213.394ZM92.3947 218.244C88.8576 218.244 86.6821 216.108 86.1487 213.879L84.2036 214.344C84.9608 217.509 87.9695 220.244 92.3947 220.244V218.244ZM98.8649 211.883C98.8649 215.445 96.0453 218.244 92.3947 218.244V220.244C97.122 220.244 100.865 216.578 100.865 211.883H98.8649ZM98.8649 189.351V211.883H100.865V189.351H98.8649ZM93.6141 173.841C97.0505 177.263 98.8649 182.429 98.8649 189.351H100.865C100.865 182.098 98.9606 176.342 95.0252 172.424L93.6141 173.841ZM77.1482 168.42C84.5844 168.42 90.0612 170.303 93.6141 173.841L95.0253 172.424C90.9659 168.382 84.8929 166.42 77.1482 166.42V168.42ZM66.8953 203.288C66.8953 205.244 67.7055 206.883 69.1769 208.005C70.6183 209.104 72.6133 209.65 74.928 209.65V207.65C72.9005 207.65 71.3792 207.169 70.3898 206.415C69.4304 205.683 68.8953 204.641 68.8953 203.288H66.8953ZM66.8953 203.102V203.288H68.8953V203.102H66.8953ZM76.9623 195.909C73.9723 195.909 71.4791 196.489 69.7036 197.701C67.8786 198.947 66.8953 200.807 66.8953 203.102H68.8953C68.8953 201.454 69.5636 200.218 70.8311 199.353C72.1481 198.454 74.1883 197.909 76.9623 197.909V195.909ZM85.6914 197.618C83.1157 196.511 80.0375 195.909 76.9623 195.909V197.909C79.7932 197.909 82.5992 198.466 84.9015 199.455L85.6914 197.618ZM86.2965 200.623V198.537H84.2965V200.623H86.2965ZM74.928 209.65C78.1519 209.65 80.9734 208.777 83.0133 207.196C85.0695 205.603 86.2965 203.313 86.2965 200.623H84.2965C84.2965 202.651 83.3907 204.374 81.7884 205.615C80.1698 206.869 77.807 207.65 74.928 207.65V209.65ZM135.258 166.049C128.923 166.049 123.767 168.453 119.621 173.337L121.145 174.632C124.917 170.189 129.518 168.049 135.258 168.049V166.049ZM159.423 193.229C159.423 175.495 147.337 166.049 135.258 166.049V168.049C146.213 168.049 157.423 176.58 157.423 193.229H159.423ZM159.423 193.414V193.229H157.423V193.414H159.423ZM152.1 213.516C156.917 208.511 159.423 201.539 159.423 193.414H157.423C157.423 201.126 155.051 207.566 150.659 212.129L152.1 213.516ZM135.258 220.605C141.714 220.605 147.696 218.096 152.1 213.515L150.658 212.129C146.641 216.308 141.183 218.605 135.258 218.605V220.605ZM119.734 213.936C124.025 218.461 129.023 220.605 135.258 220.605V218.605C129.571 218.605 125.098 216.686 121.185 212.56L119.734 213.936ZM121.46 226.355V213.248H119.46V226.355H121.46ZM112.804 235C117.576 235 121.46 231.124 121.46 226.355H119.46C119.46 230.017 116.474 233 112.804 233V235ZM104.148 226.355C104.148 231.124 108.031 235 112.804 235V233C109.133 233 106.148 230.017 106.148 226.355H104.148ZM104.148 175.066V226.355H106.148V175.066H104.148ZM112.804 166.42C108.031 166.42 104.148 170.296 104.148 175.066H106.148C106.148 171.403 109.133 168.42 112.804 168.42V166.42ZM121.373 173.844C120.779 169.655 117.169 166.42 112.804 166.42V168.42C116.16 168.42 118.937 170.909 119.393 174.125L121.373 173.844ZM131.648 181.21C137.521 181.21 142.122 186.242 142.122 193.229H144.122C144.122 185.383 138.857 179.21 131.648 179.21V181.21ZM121.274 193.229C121.274 186.103 125.739 181.21 131.648 181.21V179.21C124.39 179.21 119.274 185.26 119.274 193.229H121.274ZM121.274 193.414V193.229H119.274V193.414H121.274ZM131.648 205.433C125.728 205.433 121.274 200.54 121.274 193.414H119.274C119.274 201.382 124.378 207.433 131.648 207.433V205.433ZM142.122 193.414C142.122 200.531 137.631 205.433 131.648 205.433V207.433C138.966 207.433 144.122 201.391 144.122 193.414H142.122ZM142.122 193.229V193.414H144.122V193.229H142.122ZM177.953 174.632C181.725 170.189 186.326 168.049 192.066 168.049V166.049C185.731 166.049 180.575 168.453 176.429 173.337L177.953 174.632ZM169.612 168.42C172.968 168.42 175.745 170.909 176.201 174.125L178.181 173.844C177.587 169.655 173.977 166.42 169.612 166.42V168.42ZM162.956 175.066C162.956 171.403 165.941 168.42 169.612 168.42V166.42C164.839 166.42 160.956 170.296 160.956 175.066H162.956ZM162.956 226.355V175.066H160.956V226.355H162.956ZM169.612 233C165.941 233 162.956 230.017 162.956 226.355H160.956C160.956 231.124 164.839 235 169.612 235V233ZM176.268 226.355C176.268 230.017 173.282 233 169.612 233V235C174.384 235 178.268 231.124 178.268 226.355H176.268ZM176.268 213.248V226.355H178.268V213.248H176.268ZM192.066 218.605C186.379 218.605 181.906 216.686 177.993 212.56L176.542 213.936C180.833 218.461 185.831 220.605 192.066 220.605V218.605ZM207.466 212.129C203.448 216.308 197.991 218.605 192.066 218.605V220.605C198.522 220.605 204.504 218.096 208.908 213.515L207.466 212.129ZM214.231 193.414C214.231 201.126 211.859 207.566 207.467 212.129L208.908 213.516C213.725 208.511 216.231 201.539 216.231 193.414H214.231ZM214.231 193.229V193.414H216.231V193.229H214.231ZM192.066 168.049C203.021 168.049 214.231 176.58 214.231 193.229H216.231C216.231 175.495 204.144 166.049 192.066 166.049V168.049ZM200.93 193.229C200.93 185.383 195.664 179.21 188.456 179.21V181.21C194.329 181.21 198.93 186.242 198.93 193.229H200.93ZM200.93 193.414V193.229H198.93V193.414H200.93ZM188.456 207.433C195.774 207.433 200.93 201.391 200.93 193.414H198.93C198.93 200.531 194.439 205.433 188.456 205.433V207.433ZM176.082 193.414C176.082 201.382 181.186 207.433 188.456 207.433V205.433C182.536 205.433 178.082 200.54 178.082 193.414H176.082ZM176.082 193.229V193.414H178.082V193.229H176.082ZM188.456 179.21C181.198 179.21 176.082 185.26 176.082 193.229H178.082C178.082 186.103 182.547 181.21 188.456 181.21V179.21ZM256.727 166.42C254.828 166.42 253.128 166.983 251.706 168.1C250.293 169.209 249.21 170.819 248.452 172.835L250.324 173.539C250.987 171.776 251.884 170.503 252.941 169.673C253.987 168.851 255.246 168.42 256.727 168.42V166.42ZM265 174.49C265.013 169.953 261.33 166.42 256.727 166.42V168.42C260.283 168.42 263.009 171.113 263 174.484L265 174.49ZM264.219 178.453C264.601 177.563 265 175.768 265 174.487H263C263 175.499 262.655 177.025 262.381 177.664L264.219 178.453ZM246.953 219.859L264.223 178.443L262.377 177.673L245.107 219.089L246.953 219.859ZM228.727 234.694C233.104 234.694 236.592 233.722 239.548 231.292C242.466 228.893 244.761 225.157 246.954 219.856L245.106 219.091C242.957 224.287 240.817 227.66 238.278 229.747C235.776 231.804 232.783 232.694 228.727 232.694V234.694ZM220.505 233.303C223.243 234.283 225.643 234.694 228.727 234.694V232.694C225.862 232.694 223.691 232.319 221.179 231.42L220.505 233.303ZM214.996 225.961C214.996 230.653 218.573 232.602 220.5 233.301L221.183 231.422C219.501 230.811 216.996 229.351 216.996 225.961H214.996ZM222.165 218.616C218.646 218.616 214.996 221.373 214.996 225.961H216.996C216.996 222.599 219.625 220.616 222.165 220.616V218.616ZM224.991 219.073C224.34 218.852 223.507 218.616 222.165 218.616V220.616C223.229 220.616 223.84 220.794 224.348 220.967L224.991 219.073ZM227.426 219.544C226.67 219.544 226.129 219.427 224.967 219.065L224.372 220.975C225.594 221.355 226.366 221.544 227.426 221.544V219.544ZM230.958 217.492C230.412 218.537 229.996 218.976 229.58 219.205C229.146 219.444 228.554 219.544 227.426 219.544V221.544C228.594 221.544 229.633 221.459 230.544 220.958C231.473 220.446 232.118 219.591 232.731 218.419L230.958 217.492ZM231.273 216.737L230.923 217.567L232.766 218.344L233.116 217.514L231.273 216.737ZM214.477 178.652L231.277 217.522L233.112 216.729L216.313 177.858L214.477 178.652ZM213.607 174.771C213.607 175.99 214.062 177.611 214.466 178.625L216.324 177.885C215.962 176.977 215.607 175.627 215.607 174.771H213.607ZM222.165 166.409C217.328 166.409 213.607 170 213.607 174.771H215.607C215.607 171.153 218.383 168.409 222.165 168.409V166.409ZM230.445 172.75C229.712 170.717 228.673 169.115 227.262 168.025C225.841 166.926 224.126 166.409 222.165 166.409V168.409C223.759 168.409 225.024 168.822 226.039 169.607C227.065 170.4 227.918 171.639 228.563 173.428L230.445 172.75ZM240.558 199.902L230.441 172.74L228.567 173.438L238.684 200.6L240.558 199.902ZM248.447 172.848L238.68 199.912L240.561 200.591L250.328 173.527L248.447 172.848Z" fill="black" mask="url(#path-1-inside-1)"/>
</g>
<path d="M188.889 32.1055V76.7781C188.889 94.5087 174.406 108.884 156.542 108.884H153.271L136.563 125.456C135.909 126.105 135.003 126.517 134 126.517C133.073 126.517 132.233 126.181 131.59 125.618L131.306 125.337L131.295 125.326L114.729 108.884H111.447C93.594 108.884 79.1111 94.5087 79.1111 76.7781V32.1055C79.1111 14.3749 93.594 0 111.458 0H156.542C174.406 0 188.889 14.3749 188.889 32.1055Z" fill="#FFD666"/>
<path d="M104.671 61.8857C101.486 61.8857 99.6711 65.4875 101.519 68.0881C108.703 78.2186 120.583 84.8235 134.005 84.8235C147.428 84.8235 159.297 78.2077 166.481 68.0881C168.329 65.4875 166.514 61.8857 163.329 61.8857H104.671Z" fill="white"/>
<path d="M123.321 46.554H104.106V36.935C104.106 31.6249 108.41 27.3159 113.714 27.3159C119.017 27.3159 123.321 31.6249 123.321 36.935V46.554Z" fill="white"/>
<path d="M163.905 46.554H144.689V36.935C144.689 31.6249 148.993 27.3159 154.297 27.3159C159.601 27.3159 163.905 31.6249 163.905 36.935V46.554Z" fill="white"/>
<path d="M104.671 61.8857C101.486 61.8857 99.6711 65.4875 101.519 68.0881C108.703 78.2186 120.583 84.8235 134.005 84.8235C147.428 84.8235 159.297 78.2077 166.481 68.0881C168.329 65.4875 166.514 61.8857 163.329 61.8857H104.671Z" fill="white"/>
<path d="M123.321 46.554H104.106V36.935C104.106 31.6249 108.41 27.3159 113.714 27.3159C119.017 27.3159 123.321 31.6249 123.321 36.935V46.554Z" fill="white"/>
<path d="M163.905 46.554H144.689V36.935C144.689 31.6249 148.993 27.3159 154.297 27.3159C159.601 27.3159 163.905 31.6249 163.905 36.935V46.554Z" fill="white"/>
<defs>
<filter id="filter0_d" x="0" y="149.52" width="268" height="92.4803" filterUnits="userSpaceOnUse" color-interpolation-filters="sRGB">
<feFlood flood-opacity="0" result="BackgroundImageFix"/>
<feColorMatrix in="SourceAlpha" type="matrix" values="0 0 0 0 0 0 0 0 0 0 0 0 0 0 0 0 0 0 127 0"/>
<feOffset dy="4"/>
<feGaussianBlur stdDeviation="2"/>
<feColorMatrix type="matrix" values="0 0 0 0 0 0 0 0 0 0 0 0 0 0 0 0 0 0 0.25 0"/>
<feBlend mode="normal" in2="BackgroundImageFix" result="effect1_dropShadow"/>
<feBlend mode="normal" in="SourceGraphic" in2="effect1_dropShadow" result="shape"/>
</filter>
</defs>
</svg>
